<?xml version="1.0" encoding="UTF-8" standalone="no"?>
<svg
   version="1.1"
   height="6mm"
   width="6mm"
   id="svg18"
   sodipodi:docname="git_boxicon.svg"
   inkscape:version="1.2.2 (b0a8486541, 2022-12-01)"
   xml:space="preserve"
   xmlns:inkscape="http://www.inkscape.org/namespaces/inkscape"
   xmlns:sodipodi="http://sodipodi.sourceforge.net/DTD/sodipodi-0.dtd"
   xmlns="http://www.w3.org/2000/svg"
   xmlns:svg="http://www.w3.org/2000/svg"
   xmlns:rdf="http://www.w3.org/1999/02/22-rdf-syntax-ns#"
   xmlns:cc="http://creativecommons.org/ns#"
   xmlns:dc="http://purl.org/dc/elements/1.1/"><metadata
     id="metadata24"><rdf:RDF><cc:Work
         rdf:about=""><dc:format>image/svg+xml</dc:format><dc:type
           rdf:resource="http://purl.org/dc/dcmitype/StillImage" /></cc:Work></rdf:RDF></metadata><defs
     id="defs22" /><sodipodi:namedview
     pagecolor="#ffffff"
     bordercolor="#666666"
     borderopacity="1"
     objecttolerance="10"
     gridtolerance="10"
     guidetolerance="10"
     inkscape:pageopacity="0"
     inkscape:pageshadow="2"
     inkscape:window-width="2560"
     inkscape:window-height="1370"
     id="namedview20"
     showgrid="false"
     units="mm"
     inkscape:zoom="36.898117"
     inkscape:cx="14.079309"
     inkscape:cy="12.439659"
     inkscape:window-x="0"
     inkscape:window-y="30"
     inkscape:window-maximized="1"
     inkscape:current-layer="svg18"
     inkscape:document-rotation="0"
     inkscape:showpageshadow="2"
     inkscape:pagecheckerboard="0"
     inkscape:deskcolor="#d1d1d1"
     inkscape:document-units="mm" /><path
     fill="#444"
     d="m 5.2492195,1.5536428 c -1.6655306,0 -3.0173935,1.3518629 -3.0173935,3.0173935 0,1.1132992 0.6105471,2.0763913 1.5091381,2.6003481 V 17.060307 C 2.843257,17.583381 2.231826,18.545589 2.231826,19.659772 c 0,1.664647 1.3518629,3.017393 3.0173935,3.017393 1.6655305,0 3.0173935,-1.352746 3.0173935,-3.017393 0,-1.114183 -0.6096632,-2.076391 -1.5091381,-2.599465 V 7.1713844 C 7.6569498,6.6474276 8.266613,5.6843355 8.266613,4.5710363 8.266613,2.9055057 6.91475,1.5536428 5.2492195,1.5536428 Z m 0,19.6143842 c -0.8323234,0 -1.5091381,-0.675048 -1.5091381,-1.509139 0,-0.832323 0.6759309,-1.509138 1.5091381,-1.509138 0.834975,0 1.5091392,0.675931 1.5091392,1.509138 0,0.834091 -0.6741642,1.509139 -1.5091392,1.509139 z m 0,-15.0878519 c -0.8323234,0 -1.5091381,-0.6741643 -1.5091381,-1.5091388 0,-0.8349739 0.6759309,-1.5091381 1.5091381,-1.5091381 0.834975,0 1.5091392,0.6741642 1.5091392,1.5091381 0,0.8349745 -0.6741642,1.5091388 -1.5091392,1.5091388 z M 18.828815,17.060307 V 7.5884305 c 0,-4.5380183 -4.526532,-4.5265323 -4.526532,-4.5265323 H 12.793145 V 0.04450474 L 8.266613,4.5710363 12.793145,9.0975686 V 6.0801751 c 0,0 0.629102,0 1.509138,0 1.330657,0 1.509139,1.5091381 1.509139,1.5091381 v 9.4709938 c -0.898591,0.523074 -1.509139,1.483515 -1.509139,2.599465 0,1.664647 1.352747,3.017393 3.017394,3.017393 1.664647,0 3.017394,-1.352746 3.017394,-3.017393 0,-1.114183 -0.610547,-2.076391 -1.509138,-2.599465 z m -1.508254,4.10772 c -0.832324,0 -1.509139,-0.675048 -1.509139,-1.509139 0,-0.832323 0.675932,-1.509138 1.509139,-1.509138 0.83409,0 1.509138,0.675931 1.509138,1.509138 0,0.834091 -0.675048,1.509139 -1.509138,1.509139 z"
     id="path9863"
     style="stroke-width:0.883571;fill:#333;fill-opacity:1" /></svg>
