<?xml version="1.0" encoding="UTF-8" standalone="no"?>
<svg
   xmlns:dc="http://purl.org/dc/elements/1.1/"
   xmlns:cc="http://creativecommons.org/ns#"
   xmlns:rdf="http://www.w3.org/1999/02/22-rdf-syntax-ns#"
   xmlns:svg="http://www.w3.org/2000/svg"
   xmlns="http://www.w3.org/2000/svg"
   xmlns:sodipodi="http://sodipodi.sourceforge.net/DTD/sodipodi-0.dtd"
   xmlns:inkscape="http://www.inkscape.org/namespaces/inkscape"
   version="1.1"
   height="6mm"
   width="6mm"
   id="svg18"
   sodipodi:docname="git_boxicon.svg"
   inkscape:version="1.0.2 (e86c870879, 2021-01-15)">
  <metadata
     id="metadata24">
    <rdf:RDF>
      <cc:Work
         rdf:about="">
        <dc:format>image/svg+xml</dc:format>
        <dc:type
           rdf:resource="http://purl.org/dc/dcmitype/StillImage" />
        <dc:title></dc:title>
      </cc:Work>
    </rdf:RDF>
  </metadata>
  <defs
     id="defs22" />
  <sodipodi:namedview
     pagecolor="#ffffff"
     bordercolor="#666666"
     borderopacity="1"
     objecttolerance="10"
     gridtolerance="10"
     guidetolerance="10"
     inkscape:pageopacity="0"
     inkscape:pageshadow="2"
     inkscape:window-width="3440"
     inkscape:window-height="1361"
     id="namedview20"
     showgrid="false"
     units="mm"
     inkscape:zoom="6.5227272"
     inkscape:cx="-8.2923804"
     inkscape:cy="1.1784856"
     inkscape:window-x="0"
     inkscape:window-y="30"
     inkscape:window-maximized="1"
     inkscape:current-layer="svg18"
     inkscape:document-rotation="0" />
  <path
     d="M 22.054078,10.406437 12.342312,0.69505936 c -0.559043,-0.55943172 -1.466165,-0.55943172 -2.02596,0 L 8.2998571,2.7119168 10.857894,5.2700524 c 0.594606,-0.2007522 1.27638,-0.066013 1.750118,0.4078201 0.476594,0.476788 0.610098,1.164421 0.404238,1.7610839 l 2.465663,2.4653715 c 0.596662,-0.2056649 1.284586,-0.072718 1.761181,0.4045291 0.665701,0.665509 0.665701,1.744356 0,2.410421 -0.666187,0.666089 -1.744817,0.666089 -2.411293,0 -0.50068,-0.501164 -0.62455,-1.236922 -0.370662,-1.853845 L 12.157442,8.5659286 v 6.0510834 c 0.162165,0.08037 0.315348,0.187414 0.45057,0.322249 0.665702,0.665628 0.665702,1.744356 0,2.411001 -0.665701,0.665412 -1.745106,0.665412 -2.410324,0 -0.6657018,-0.666645 -0.6657018,-1.745373 0,-2.411001 0.164537,-0.164344 0.355073,-0.288672 0.558366,-0.371897 V 8.4603116 C 10.552761,8.3770868 10.362685,8.2537992 10.197688,8.0883176 9.6934976,7.5842973 9.5721703,6.8441826 9.8308012,6.2249098 L 7.308881,3.702627 0.64949605,10.361435 c -0.55932107,0.559892 -0.55932107,1.467013 0,2.02642 l 9.71224495,9.711399 c 0.559141,0.55932 1.465972,0.55932 2.02596,0 l 9.666377,-9.666397 c 0.559503,-0.559504 0.559503,-1.467085 0,-2.02642"
     style="fill:#5bc9ff;fill-opacity:1;fill-rule:nonzero;stroke:none;stroke-width:0.1;stroke-miterlimit:4;stroke-dasharray:none"
     id="path161" />
</svg>
