<?xml version="1.0" encoding="UTF-8" standalone="no"?>
<svg
   xmlns:dc="http://purl.org/dc/elements/1.1/"
   xmlns:cc="http://creativecommons.org/ns#"
   xmlns:rdf="http://www.w3.org/1999/02/22-rdf-syntax-ns#"
   xmlns:svg="http://www.w3.org/2000/svg"
   xmlns="http://www.w3.org/2000/svg"
   xmlns:sodipodi="http://sodipodi.sourceforge.net/DTD/sodipodi-0.dtd"
   xmlns:inkscape="http://www.inkscape.org/namespaces/inkscape"
   version="1.1"
   height="6mm"
   width="6mm"
   id="svg18"
   sodipodi:docname="important_boxicon.svg"
   inkscape:version="1.0.2 (e86c870879, 2021-01-15)">
  <metadata
     id="metadata24">
    <rdf:RDF>
      <cc:Work
         rdf:about="">
        <dc:format>image/svg+xml</dc:format>
        <dc:type
           rdf:resource="http://purl.org/dc/dcmitype/StillImage" />
        <dc:title></dc:title>
      </cc:Work>
    </rdf:RDF>
  </metadata>
  <defs
     id="defs22" />
  <sodipodi:namedview
     pagecolor="#ffffff"
     bordercolor="#666666"
     borderopacity="1"
     objecttolerance="10"
     gridtolerance="10"
     guidetolerance="10"
     inkscape:pageopacity="0"
     inkscape:pageshadow="2"
     inkscape:window-width="3440"
     inkscape:window-height="1361"
     id="namedview20"
     showgrid="false"
     units="mm"
     inkscape:zoom="26.090909"
     inkscape:cx="7.5070443"
     inkscape:cy="12.010948"
     inkscape:window-x="0"
     inkscape:window-y="30"
     inkscape:window-maximized="1"
     inkscape:current-layer="svg18"
     inkscape:document-rotation="0" />
  <g
     id="g1045"
     transform="matrix(0.07592759,0,0,0.07592759,0.06491773,0.0714383)">
    <g
       id="g971">
	<g
   id="g943">
		<g
   id="g941">
			<g
   id="g939">
				<g
   id="g937">
					<g
   id="g935">
						<circle
   style="fill:#32373b"
   cx="148.5"
   cy="148.5"
   r="148.5"
   id="circle933" />

					</g>

				</g>

			</g>

		</g>

	</g>

	<path
   style="fill:#262626"
   d="m 161.499,40.682 -108.253,168.29 87.847,87.843 c 2.454,0.121 4.923,0.184 7.407,0.184 73.32,0 134.223,-53.14 146.312,-123.005 z"
   id="path945" />

	<g
   id="g949">
		<path
   style="fill:#e67e22"
   d="M 50.426,186.738 132.471,44.631 c 7.124,-12.339 24.933,-12.339 32.057,0 l 82.045,142.107 c 7.124,12.339 -1.781,27.762 -16.029,27.762 H 66.455 c -14.248,0 -23.153,-15.424 -16.029,-27.762 z"
   id="path947" />

	</g>

	<g
   id="g953">
		<path
   style="fill:#d1691c"
   d="M 246.574,186.738 164.529,44.631 c -3.562,-6.169 -9.795,-9.254 -16.028,-9.254 V 214.5 h 82.045 c 14.247,0 23.152,-15.424 16.028,-27.762 z"
   id="path951" />

	</g>

	<g
   id="g957">
		<path
   style="fill:white"
   d="m 148.5,157.938 v 0 c 4.556,0 8.25,-3.694 8.25,-8.25 v -66 c 0,-4.556 -3.694,-8.25 -8.25,-8.25 v 0 c -4.556,0 -8.25,3.694 -8.25,8.25 v 66 c 0,4.557 3.694,8.25 8.25,8.25 z"
   id="path955" />

	</g>

	<g
   id="g961">
		<path
   style="fill:white"
   d="m 148.5,190.938 v 0 c 4.556,0 8.25,-3.694 8.25,-8.25 v 0 c 0,-4.556 -3.694,-8.25 -8.25,-8.25 v 0 c -4.556,0 -8.25,3.694 -8.25,8.25 v 0 c 0,4.557 3.694,8.25 8.25,8.25 z"
   id="path959" />

	</g>

	<g
   id="g965">
		<path
   style="fill:#e3e5e4"
   d="m 148.5,75.438 v 82.5 c 4.556,0 8.25,-3.694 8.25,-8.25 v -66 c 0,-4.556 -3.694,-8.25 -8.25,-8.25 z"
   id="path963" />

	</g>

	<g
   id="g969">
		<path
   style="fill:#e3e5e4"
   d="m 148.5,174.438 v 16.5 c 4.556,0 8.25,-3.694 8.25,-8.25 v 0 c 0,-4.556 -3.694,-8.25 -8.25,-8.25 z"
   id="path967" />

	</g>

</g>
    <g
       id="g973">
</g>
    <g
       id="g975">
</g>
    <g
       id="g977">
</g>
    <g
       id="g979">
</g>
    <g
       id="g981">
</g>
    <g
       id="g983">
</g>
    <g
       id="g985">
</g>
    <g
       id="g987">
</g>
    <g
       id="g989">
</g>
    <g
       id="g991">
</g>
    <g
       id="g993">
</g>
    <g
       id="g995">
</g>
    <g
       id="g997">
</g>
    <g
       id="g999">
</g>
    <g
       id="g1001">
</g>
  </g>
</svg>
