<?xml version="1.0" encoding="UTF-8" standalone="no"?>
<svg
   xmlns:dc="http://purl.org/dc/elements/1.1/"
   xmlns:cc="http://creativecommons.org/ns#"
   xmlns:rdf="http://www.w3.org/1999/02/22-rdf-syntax-ns#"
   xmlns:svg="http://www.w3.org/2000/svg"
   xmlns="http://www.w3.org/2000/svg"
   xmlns:sodipodi="http://sodipodi.sourceforge.net/DTD/sodipodi-0.dtd"
   xmlns:inkscape="http://www.inkscape.org/namespaces/inkscape"
   version="1.1"
   height="6mm"
   width="6mm"
   id="svg18"
   sodipodi:docname="more_boxicon.svg"
   inkscape:version="1.0.2 (e86c870879, 2021-01-15)">
  <metadata
     id="metadata24">
    <rdf:RDF>
      <cc:Work
         rdf:about="">
        <dc:format>image/svg+xml</dc:format>
        <dc:type
           rdf:resource="http://purl.org/dc/dcmitype/StillImage" />
        <dc:title></dc:title>
      </cc:Work>
    </rdf:RDF>
  </metadata>
  <defs
     id="defs22" />
  <sodipodi:namedview
     pagecolor="#ffffff"
     bordercolor="#666666"
     borderopacity="1"
     objecttolerance="10"
     gridtolerance="10"
     guidetolerance="10"
     inkscape:pageopacity="0"
     inkscape:pageshadow="2"
     inkscape:window-width="1712"
     inkscape:window-height="1361"
     id="namedview20"
     showgrid="false"
     units="mm"
     inkscape:zoom="13.045454"
     inkscape:cx="16.604725"
     inkscape:cy="6.8577733"
     inkscape:window-x="1720"
     inkscape:window-y="30"
     inkscape:window-maximized="0"
     inkscape:current-layer="g1175"
     inkscape:document-rotation="0" />
  <g
     id="g1251"
     transform="matrix(0.04353037,0,0,0.04353037,0.64868541,0.51220354)">
    <g
       id="g1177">
	<path
   style="fill:#ffa200;fill-opacity:1"
   d="M 352.583,211.919 C 352.583,144.23 297.995,89.29 230.44,88.722 162.466,88.15 106.179,143.944 106.18,211.92 c 0,33.247 13.171,63.416 34.579,85.577 25.593,26.494 40.024,61.808 40.024,98.645 v 13.156 h 97.197 v -13.15 c 0,-36.544 13.862,-71.932 39.432,-98.042 21.757,-22.217 35.171,-52.634 35.171,-86.187 z"
   id="path1139" />

	<rect
   x="180.783"
   y="409.297"
   style="fill:#7fd5ff;fill-opacity:1"
   width="97.196999"
   height="57.125"
   id="rect1141" />

	<path
   style="fill:white"
   d="m 253.254,466.422 c 0,14.126 -11.452,25.578 -25.578,25.578 -14.126,0 -25.578,-11.452 -25.578,-25.578 z"
   id="path1143" />

	<g
   id="g1175">
		<path
   d="M 230.523,78.722 C 194.94,78.38 161.302,92.202 135.767,117.524 110.239,142.84 96.18,176.363 96.18,211.92 c 0,34.708 13.278,67.567 37.387,92.524 24,24.844 37.216,57.409 37.216,91.697 v 13.156 57.125 c 0,5.523 4.477,10 10,10 h 12.756 c 4.332,14.763 17.991,25.578 34.137,25.578 16.146,0 29.805,-10.815 34.138,-25.578 h 16.166 c 5.523,0 10,-4.477 10,-10 v -57.125 -13.15 c 0,-34.627 12.99,-66.961 36.576,-91.044 24.522,-25.04 38.027,-58.133 38.027,-93.185 0,-35.38 -13.723,-68.697 -38.64,-93.812 -24.902,-25.1 -58.079,-39.086 -93.42,-39.384 z M 227.676,482 c -4.787,0 -9.076,-2.17 -11.936,-5.578 h 23.872 c -2.86,3.408 -7.149,5.578 -11.936,5.578 z m 40.304,-25.578 h -14.726 -51.156 -11.315 v -37.125 h 77.197 z m 42.287,-165.313 c -27.269,27.844 -42.287,65.148 -42.287,105.039 v 3.15 h -77.197 v -3.156 c 0,-39.5 -15.211,-77 -42.832,-105.593 -20.488,-21.208 -31.771,-49.133 -31.771,-78.629 0,-30.183 11.958,-58.663 33.67,-80.194 21.72,-21.538 50.338,-33.226 80.505,-33.005 61.882,0.521 112.228,51.301 112.228,113.197 0,29.789 -11.477,57.912 -32.316,79.191 z"
   id="path1145"
   style="fill:#333;fill-opacity:1" />

		<path
   d="m 229.381,55.584 c 5.523,0 10,-4.477 10,-10 V 10 c 0,-5.523 -4.477,-10 -10,-10 -5.523,0 -10,4.477 -10,10 v 35.584 c 0,5.523 4.477,10 10,10 z"
   id="path1147"
   style="stroke:none;stroke-opacity:1;fill:#333;fill-opacity:1" />

		<path
   d="m 85.246,29.896 c 1.957,2.693 5.006,4.123 8.099,4.123 2.038,0 4.095,-0.621 5.87,-1.91 4.468,-3.247 5.458,-9.5 2.212,-13.968 L 94.319,8.358 C 91.073,3.89 84.82,2.9 80.351,6.146 c -4.468,3.247 -5.458,9.5 -2.212,13.968 z"
   id="path1149"
   style="stroke:none;stroke-opacity:1;fill:#333;fill-opacity:1" />

		<path
   d="m 124.729,84.239 c 1.957,2.693 5.006,4.123 8.099,4.123 2.038,0 4.095,-0.621 5.87,-1.91 4.468,-3.246 5.458,-9.5 2.212,-13.968 L 121.797,46.176 c -3.246,-4.468 -9.499,-5.459 -13.968,-2.212 -4.468,3.246 -5.458,9.5 -2.212,13.968 z"
   id="path1151"
   style="stroke:none;stroke-opacity:1;fill:#333;fill-opacity:1" />

		<path
   d="m 37.031,160.15 33.843,10.996 c 1.027,0.333 2.068,0.492 3.092,0.492 4.215,0 8.136,-2.687 9.509,-6.913 1.707,-5.253 -1.168,-10.894 -6.42,-12.601 L 43.212,141.128 c -5.251,-1.705 -10.894,1.168 -12.601,6.42 -1.707,5.254 1.167,10.895 6.42,12.602 z"
   id="path1153"
   style="stroke:none;stroke-opacity:1;fill:#333;fill-opacity:1" />

		<path
   d="m 84.808,260.51 c -1.707,-5.253 -7.346,-8.126 -12.601,-6.42 l -33.843,10.996 c -5.252,1.707 -8.127,7.348 -6.42,12.601 1.373,4.226 5.293,6.913 9.509,6.913 1.024,0 2.065,-0.159 3.092,-0.492 l 33.843,-10.996 c 5.252,-1.708 8.126,-7.349 6.42,-12.602 z"
   id="path1155"
   style="stroke:none;stroke-opacity:1;fill:#333;fill-opacity:1" />

		<path
   d="m 102.626,391.668 c -4.467,-3.246 -10.721,-2.255 -13.968,2.212 l -8.903,12.253 c -3.246,4.468 -2.256,10.722 2.212,13.968 1.775,1.29 3.832,1.91 5.87,1.91 3.092,0 6.142,-1.43 8.099,-4.123 l 8.903,-12.253 c 3.246,-4.467 2.256,-10.72 -2.213,-13.967 z"
   id="path1157"
   style="stroke:none;stroke-opacity:1;fill:#333;fill-opacity:1" />

		<path
   d="m 134.544,347.736 c -4.468,-3.246 -10.722,-2.255 -13.968,2.212 l -8.845,12.175 c -3.246,4.468 -2.255,10.722 2.212,13.968 1.775,1.29 3.832,1.91 5.87,1.91 3.092,0 6.142,-1.43 8.099,-4.123 l 8.845,-12.175 c 3.246,-4.467 2.255,-10.721 -2.213,-13.967 z"
   id="path1159"
   style="stroke:none;stroke-opacity:1;fill:#333;fill-opacity:1" />

		<path
   d="m 338.347,336.895 c -3.246,-4.468 -9.499,-5.459 -13.968,-2.212 -4.468,3.247 -5.458,9.5 -2.212,13.968 l 20.916,28.789 c 1.957,2.693 5.006,4.123 8.099,4.123 2.038,0 4.095,-0.621 5.87,-1.91 4.468,-3.247 5.458,-9.5 2.212,-13.968 z"
   id="path1161"
   style="stroke:none;stroke-opacity:1;fill:#333;fill-opacity:1" />

		<path
   d="m 426.045,260.984 -33.843,-10.997 c -5.252,-1.705 -10.894,1.168 -12.601,6.42 -1.707,5.252 1.168,10.894 6.42,12.601 l 33.843,10.997 c 1.027,0.333 2.068,0.492 3.092,0.492 4.215,0 8.136,-2.687 9.509,-6.913 1.707,-5.251 -1.167,-10.893 -6.42,-12.6 z"
   id="path1163"
   style="stroke-width:1.01078856;stroke-miterlimit:4;stroke-dasharray:none;stroke:none;stroke-opacity:1;fill:#333;fill-opacity:1" />

		<path
   d="m 471.39,130.367 c -1.706,-5.252 -7.347,-8.127 -12.601,-6.42 l -14.678,4.769 c -5.252,1.707 -8.127,7.348 -6.42,12.601 1.373,4.226 5.293,6.913 9.509,6.913 1.024,0 2.065,-0.159 3.092,-0.492 l 14.678,-4.769 c 5.252,-1.708 8.126,-7.349 6.42,-12.602 z"
   id="path1165"
   style="stroke:none;stroke-opacity:1;fill:#333;fill-opacity:1" />

		<path
   d="m 387.777,167.536 c 1.024,0 2.065,-0.159 3.092,-0.492 l 25.994,-8.446 c 5.252,-1.707 8.127,-7.348 6.42,-12.601 -1.707,-5.252 -7.347,-8.127 -12.601,-6.42 l -25.994,8.446 c -5.252,1.707 -8.127,7.348 -6.42,12.601 1.374,4.225 5.294,6.912 9.509,6.912 z"
   id="path1167"
   style="stroke:none;stroke-opacity:1;fill:#333;fill-opacity:1" />

		<path
   d="m 320.89,83.916 c 1.775,1.29 3.832,1.91 5.87,1.91 3.092,0 6.142,-1.43 8.099,-4.123 l 20.916,-28.789 c 3.246,-4.468 2.255,-10.722 -2.212,-13.968 -4.469,-3.246 -10.722,-2.255 -13.968,2.212 l -20.916,28.789 c -3.248,4.469 -2.257,10.722 2.211,13.969 z"
   id="path1169"
   style="stroke:none;stroke-opacity:1;fill:#333;fill-opacity:1" />

		<path
   d="m 288.349,135.549 c -11.289,-8.76 -24.609,-14.981 -38.521,-17.992 -5.395,-1.169 -10.721,2.26 -11.889,7.659 -1.168,5.398 2.261,10.721 7.659,11.889 11.007,2.382 21.55,7.308 30.491,14.245 1.823,1.415 3.981,2.1 6.124,2.1 2.984,0 5.937,-1.33 7.907,-3.87 3.385,-4.363 2.592,-10.645 -1.771,-14.031 z"
   id="path1171"
   style="fill:#333;fill-opacity:1" />

		<path
   d="m 202.914,119.066 c -41.096,11.729 -69.797,49.799 -69.797,92.579 0,5.523 4.477,10 10,10 5.523,0 10,-4.477 10,-10 0,-33.895 22.735,-64.056 55.287,-73.346 5.311,-1.516 8.387,-7.05 6.872,-12.361 -1.518,-5.31 -7.052,-8.388 -12.362,-6.872 z"
   id="path1173"
   style="fill:#333;fill-opacity:1" />

	</g>

</g>
    <g
       id="g1179">
</g>
    <g
       id="g1181">
</g>
    <g
       id="g1183">
</g>
    <g
       id="g1185">
</g>
    <g
       id="g1187">
</g>
    <g
       id="g1189">
</g>
    <g
       id="g1191">
</g>
    <g
       id="g1193">
</g>
    <g
       id="g1195">
</g>
    <g
       id="g1197">
</g>
    <g
       id="g1199">
</g>
    <g
       id="g1201">
</g>
    <g
       id="g1203">
</g>
    <g
       id="g1205">
</g>
    <g
       id="g1207">
</g>
  </g>
</svg>
