<?xml version="1.0" encoding="UTF-8" standalone="no"?>
<svg
   xmlns:dc="http://purl.org/dc/elements/1.1/"
   xmlns:cc="http://creativecommons.org/ns#"
   xmlns:rdf="http://www.w3.org/1999/02/22-rdf-syntax-ns#"
   xmlns:svg="http://www.w3.org/2000/svg"
   xmlns="http://www.w3.org/2000/svg"
   xmlns:sodipodi="http://sodipodi.sourceforge.net/DTD/sodipodi-0.dtd"
   xmlns:inkscape="http://www.inkscape.org/namespaces/inkscape"
   version="1.1"
   height="5.963419mm"
   width="3.7532058mm"
   id="svg18"
   sodipodi:docname="more_boxicon_inline.svg"
   inkscape:version="1.0.2 (e86c870879, 2021-01-15)">
  <metadata
     id="metadata24">
    <rdf:RDF>
      <cc:Work
         rdf:about="">
        <dc:format>image/svg+xml</dc:format>
        <dc:type
           rdf:resource="http://purl.org/dc/dcmitype/StillImage" />
        <dc:title></dc:title>
      </cc:Work>
    </rdf:RDF>
  </metadata>
  <defs
     id="defs22" />
  <sodipodi:namedview
     pagecolor="#ffffff"
     bordercolor="#666666"
     borderopacity="1"
     objecttolerance="10"
     gridtolerance="10"
     guidetolerance="10"
     inkscape:pageopacity="0"
     inkscape:pageshadow="2"
     inkscape:window-width="1272"
     inkscape:window-height="1361"
     id="namedview20"
     showgrid="false"
     units="mm"
     inkscape:zoom="13.045454"
     inkscape:cx="34.985546"
     inkscape:cy="6.8509117"
     inkscape:window-x="0"
     inkscape:window-y="30"
     inkscape:window-maximized="0"
     inkscape:current-layer="svg18"
     inkscape:document-rotation="0"
     fit-margin-top="0"
     fit-margin-left="0"
     fit-margin-right="0"
     fit-margin-bottom="0" />
  <g
     id="g1251"
     transform="matrix(0.05324769,0,0,0.05324769,-5.1213628,-4.1914346)">
    <g
       id="g1177">
      <path
         style="fill:#ffa200;fill-opacity:1"
         d="M 352.583,211.919 C 352.583,144.23 297.995,89.29 230.44,88.722 162.466,88.15 106.179,143.944 106.18,211.92 c 0,33.247 13.171,63.416 34.579,85.577 25.593,26.494 40.024,61.808 40.024,98.645 v 13.156 h 97.197 v -13.15 c 0,-36.544 13.862,-71.932 39.432,-98.042 21.757,-22.217 35.171,-52.634 35.171,-86.187 z"
         id="path1139" />
      <rect
         x="180.783"
         y="409.297"
         style="fill:#7fd5ff;fill-opacity:1"
         width="97.196999"
         height="57.125"
         id="rect1141" />
      <path
         style="fill:white"
         d="m 253.254,466.422 c 0,14.126 -11.452,25.578 -25.578,25.578 -14.126,0 -25.578,-11.452 -25.578,-25.578 z"
         id="path1143" />
      <g
         id="g1175">
        <path
           d="M 230.523,78.722 C 194.94,78.38 161.302,92.202 135.767,117.524 110.239,142.84 96.18,176.363 96.18,211.92 c 0,34.708 13.278,67.567 37.387,92.524 24,24.844 37.216,57.409 37.216,91.697 v 13.156 57.125 c 0,5.523 4.477,10 10,10 h 12.756 c 4.332,14.763 17.991,25.578 34.137,25.578 16.146,0 29.805,-10.815 34.138,-25.578 h 16.166 c 5.523,0 10,-4.477 10,-10 v -57.125 -13.15 c 0,-34.627 12.99,-66.961 36.576,-91.044 24.522,-25.04 38.027,-58.133 38.027,-93.185 0,-35.38 -13.723,-68.697 -38.64,-93.812 -24.902,-25.1 -58.079,-39.086 -93.42,-39.384 z M 227.676,482 c -4.787,0 -9.076,-2.17 -11.936,-5.578 h 23.872 c -2.86,3.408 -7.149,5.578 -11.936,5.578 z m 40.304,-25.578 h -14.726 -51.156 -11.315 v -37.125 h 77.197 z m 42.287,-165.313 c -27.269,27.844 -42.287,65.148 -42.287,105.039 v 3.15 h -77.197 v -3.156 c 0,-39.5 -15.211,-77 -42.832,-105.593 -20.488,-21.208 -31.771,-49.133 -31.771,-78.629 0,-30.183 11.958,-58.663 33.67,-80.194 21.72,-21.538 50.338,-33.226 80.505,-33.005 61.882,0.521 112.228,51.301 112.228,113.197 0,29.789 -11.477,57.912 -32.316,79.191 z"
           id="path1145"
           style="fill:#333;fill-opacity:1" />
        <path
           d="m 288.349,135.549 c -11.289,-8.76 -24.609,-14.981 -38.521,-17.992 -5.395,-1.169 -10.721,2.26 -11.889,7.659 -1.168,5.398 2.261,10.721 7.659,11.889 11.007,2.382 21.55,7.308 30.491,14.245 1.823,1.415 3.981,2.1 6.124,2.1 2.984,0 5.937,-1.33 7.907,-3.87 3.385,-4.363 2.592,-10.645 -1.771,-14.031 z"
           id="path1171"
           style="fill:#333;fill-opacity:1" />
        <path
           d="m 202.914,119.066 c -41.096,11.729 -69.797,49.799 -69.797,92.579 0,5.523 4.477,10 10,10 5.523,0 10,-4.477 10,-10 0,-33.895 22.735,-64.056 55.287,-73.346 5.311,-1.516 8.387,-7.05 6.872,-12.361 -1.518,-5.31 -7.052,-8.388 -12.362,-6.872 z"
           id="path1173"
           style="fill:#333;fill-opacity:1" />
      </g>
    </g>
    <g
       id="g1179" />
    <g
       id="g1181" />
    <g
       id="g1183" />
    <g
       id="g1185" />
    <g
       id="g1187" />
    <g
       id="g1189" />
    <g
       id="g1191" />
    <g
       id="g1193" />
    <g
       id="g1195" />
    <g
       id="g1197" />
    <g
       id="g1199" />
    <g
       id="g1201" />
    <g
       id="g1203" />
    <g
       id="g1205" />
    <g
       id="g1207" />
  </g>
</svg>
