<?xml version="1.0" encoding="UTF-8" standalone="no"?>
<svg
   version="1.1"
   height="6mm"
   width="6mm"
   id="svg18"
   sodipodi:docname="win_boxicon_bw.svg"
   inkscape:version="1.2.2 (b0a8486541, 2022-12-01)"
   xml:space="preserve"
   xmlns:inkscape="http://www.inkscape.org/namespaces/inkscape"
   xmlns:sodipodi="http://sodipodi.sourceforge.net/DTD/sodipodi-0.dtd"
   xmlns="http://www.w3.org/2000/svg"
   xmlns:svg="http://www.w3.org/2000/svg"
   xmlns:rdf="http://www.w3.org/1999/02/22-rdf-syntax-ns#"
   xmlns:cc="http://creativecommons.org/ns#"
   xmlns:dc="http://purl.org/dc/elements/1.1/"><metadata
     id="metadata24"><rdf:RDF><cc:Work
         rdf:about=""><dc:format>image/svg+xml</dc:format><dc:type
           rdf:resource="http://purl.org/dc/dcmitype/StillImage" /></cc:Work></rdf:RDF></metadata><defs
     id="defs22" /><sodipodi:namedview
     pagecolor="#ffffff"
     bordercolor="#666666"
     borderopacity="1"
     objecttolerance="10"
     gridtolerance="10"
     guidetolerance="10"
     inkscape:pageopacity="0"
     inkscape:pageshadow="2"
     inkscape:window-width="1278"
     inkscape:window-height="1369"
     id="namedview20"
     showgrid="false"
     units="mm"
     inkscape:zoom="22.627417"
     inkscape:cx="12.109204"
     inkscape:cy="14.56198"
     inkscape:window-x="0"
     inkscape:window-y="30"
     inkscape:window-maximized="0"
     inkscape:current-layer="svg18"
     inkscape:document-rotation="0"
     inkscape:showpageshadow="2"
     inkscape:pagecheckerboard="0"
     inkscape:deskcolor="#d1d1d1"
     inkscape:document-units="mm" /><g
     style="fill:#333;fill-opacity:1"
     id="g7123"
     transform="matrix(1.3570201,0,0,1.3570201,-314.35739,-357.78819)"><path
       d="m 231.68194,264.79101 v 15.52705 h 3.36049 v -1.10907 h 9.91514 v 1.10907 h 3.36049 v -15.52705 c 0,-0.6086 -0.49735,-1.10734 -1.10595,-1.10907 h -14.4211 c -0.60999,0 -1.10907,0.49908 -1.10907,1.10907 z m 13.28672,13.3089 h -4.41412 v -6.07253 h 5.51834 c -1.08204,1.63623 -1.08204,1.63623 -1.08204,3.29984 z m 0.9233,-7.20898 h -5.33742 v -6.09992 h 2.22231 c 0.026,2.80492 0.19478,3.52617 1.10491,4.4363 z m -10.86062,7.20898 -0.0222,-2.77269 c 0,-1.66361 0,-1.66361 -1.08204,-3.29984 h 5.51834 v 6.07253 z m -0.9233,-7.20898 2.0102,-1.66362 c 0.91013,-0.91013 1.07892,-1.63138 1.10491,-4.4363 h 2.22231 v 6.09992 z"
       id="path7114"
       style="fill:#333;fill-opacity:1;stroke-width:0.0346586" /></g></svg>
