<svg version="1" xmlns="http://www.w3.org/2000/svg" width="2556" height="2556" viewBox="0 0 1917.000000 1917.000000"><path d="M349.3 1.4c-13 3.2-26.1 13.4-31.6 24.9-6 12.5-5.7-9.3-5.7 334.4V676h1216V383.6c0-204.3-.3-294.8-1.1-300.2-1.8-13.4-7.7-29.1-15-40.2-1.1-1.7-1.7-3.2-1.2-3.2 2.4 0 18.5 11.1 25 17.3 13.6 12.9 22.5 29.1 26.4 48.2 1.8 8.7 1.9 31.7 1.9 780.5 0 519.6-.3 773.6-1 778-4.3 26.9-20.6 50.8-44.2 64.7-4 2.4-7.6 4.3-8.1 4.3s.1-1.5 1.2-3.3c7.3-11 13.2-26.7 15-40.1.8-5.3 1.1-68.2 1.1-202.2V1293H312v217.2c0 183.5.3 218.3 1.4 224 4 18.7 18.1 33.4 36 37.3 6.4 1.4 64.1 1.5 590.1 1.3l583-.3 8.4-2.3c34.8-9.4 61.5-36.3 70.3-70.8l2.3-8.9V82.5l-2.3-8.9c-7.3-28.8-26.6-52-53.7-64.7-4.5-2.1-12-4.9-16.6-6.1l-8.4-2.3-584-.2C473.6.2 353.4.4 349.3 1.4zm97.4 112.4L433 127.5l14 14 14 14V307h37.9l14 12.1c7.8 6.7 14.1 12.5 14.1 13 0 1.5-17.1 27.4-18.8 28.4-1.1.6-22.6 1.1-58.4 1.3l-56.8.3V100h67.5l-13.8 13.8zm92.7-10.8c14.3 2.8 24.6 6.3 37.1 12.6 34.8 17.2 57.8 47.3 66.2 86.4 1.4 6.6 1.8 12.9 1.8 28.5s-.4 21.9-1.8 28.5c-5.6 26.1-16.4 46-34.7 64-11.8 11.6-21.9 18.5-37.7 25.5-10.2 4.6-27.1 9.9-29.7 9.3-1.1-.2.6-4.2 6.9-15.8 4.6-8.5 8.4-16 8.5-16.6 0-.5-5.4-5.7-12-11.4s-12-10.7-12-11.1c0-.4 1.5-1.3 3.4-1.9 5.6-1.8 17.2-10.6 22.6-17 5.7-6.9 12-19.4 14.7-29 1.3-5 1.8-10.3 1.8-23 0-19.4-1.1-24.6-8.2-39-10.9-22.3-34-36.9-58.3-37h-7.5l-14.2-14.2-14.3-14.3 13.8-13.8 13.7-13.9 15 .6c8.6.3 19.2 1.4 24.9 2.6zM960 134.5V164h47v43h-46.8l-.7 143.3c-.4 78.8-.4 146 0 149.4 1 8.9 5 15.4 11.7 18.7 4.9 2.4 6.1 2.6 19.5 2.6h14.3v47h-21.2c-25 0-31.5-1.1-43.8-7.1-6.7-3.3-10.2-5.9-16.6-12.3-9-9-12.9-15.9-16.6-29.1l-2.3-8-.3-203.3L904 105h56v29.5zM780.3 163c9.1 2.3 20.2 7.6 27.2 13l5 3.9.3-7.9.3-8H868v198h-54.9l-.3-7.9-.3-7.9-7.5 4.9c-8.1 5.3-19 10-28.5 12-8.8 1.9-27.5 1.6-36.7-.5-32.1-7.3-58.6-31.3-69.4-62.8-8.1-23.8-7.2-57.7 2.1-80.5 11.1-27.3 38.8-50.5 68-56.7 10.6-2.2 30.4-2 39.8.4zm356.2-.5c8.4 1.8 21 7.7 28.5 13.4l5.5 4.1.3-8 .3-8h54.9v401h-55v-15.9l-8 5.4c-8.8 5.8-21.1 10.8-31.6 12.6-8.6 1.5-28.8.6-37.4-1.6-26.1-6.8-50.7-27.8-62.2-53.2-7.4-16.4-10.7-42.7-7.9-63.7 2.9-21.1 11.8-40 25.7-54 16.4-16.4 33.1-24.9 57.9-29.2l4-.7-6-.8c-20.9-2.5-38.3-11.4-54.5-27.8-17.2-17.3-25.3-35.4-28-62.6-2.2-22.1 2.2-46.2 11.6-63.3 13.1-23.9 37.4-41.9 64.4-47.6 8.7-1.9 28.7-1.9 37.5-.1zm306.1 58.6l13.4 12.1v11.4c0 6.3-.3 11.4-.6 11.4s-6.2-5.1-13-11.3c-6.9-6.1-13-11.2-13.4-11.2-.5 0-6.2 4.7-12.6 10.5-6.5 5.8-12.4 10.9-13.1 11.3-1 .6-1.3-1.5-1.2-11l.1-11.8 13.1-11.7c7.3-6.4 13.3-11.7 13.5-11.8.2 0 6.4 5.5 13.8 12.1zm.4 37.9l13 11.4v23.9l-2.2-2c-11.8-10.7-24.2-21.3-25-21.3-.9 0-10.1 8-23.5 20.4l-3.3 3v-24l13.2-11.7c7.2-6.5 13.5-11.6 14-11.5.4.2 6.6 5.5 13.8 11.8zm.3 37.8l12.7 11.4V565h-54v-12.5c0-6.9-.4-12.5-.8-12.5s-2.4 2-4.4 4.4c-5.1 6-14.9 13.3-23.6 17.3-10.9 5.1-19.4 6.6-33.7 6-14.4-.6-24.1-3.3-35.5-10.1-37.5-22.2-56.4-64.6-49.4-111.3 2.7-18.6 9.2-33.7 20.5-47.8 13.8-17.1 32.1-28.4 52.3-32.2 9.7-1.9 27.8-1.3 37.1 1.2 9.9 2.7 21.4 8.8 29.8 15.9l7.7 6.7v-81.9l13.3-12c7.2-6.6 13.7-11.7 14.2-11.4.6.3 6.7 5.7 13.8 12z"/><path d="M757 208.3c-8.3 2.4-12.4 5-20.1 12.6-12.1 12-16.4 23.3-16.4 42.6.1 17.6 5.7 31.6 16.6 41.7 26.8 24.5 64.9 11.9 74.4-24.7 2.1-7.9 2.1-25 .1-33.7-3.7-16-13.4-29.1-26.1-35.4-6.2-3.1-8.5-3.7-15.7-4-5-.2-10.1.1-12.8.9zM1113 208.8c-20.9 7-35 28.7-35 54.2 0 16.6 5.3 30.4 15.5 40.6 22.4 22.6 56.1 17.7 70.7-10.2 4.9-9.3 6.8-17.6 6.8-30 0-24.2-10.9-44.3-28.5-52.5-8.6-4.1-20.9-4.9-29.5-2.1zM1162.5 351c-10.1 7-26.1 12.7-36.5 13.1-2.5.1-1.6.5 3.5 1.4 15.2 2.8 25.7 7.1 35.3 14.5 2.9 2.2 5.5 4 5.7 4 .3 0 .5-8.6.5-19 0-10.5-.3-18.9-.7-18.9-.5.1-3.9 2.3-7.8 4.9zM1111.9 412.8c-15.6 5.9-27.9 20.2-32.4 37.7-2 7.7-2 25.3 0 32.9 3.9 14.9 14.2 27.9 27.3 34.4 7.4 3.6 7.9 3.7 18.7 3.7 10.8 0 11.3-.1 18.7-3.8 12.3-6 21.3-17.7 25.4-32.7 2.3-8.7 2.4-26.2.1-35-4.1-15.7-14.3-29.2-26.5-35.2-6-3-7.6-3.3-16.7-3.5-7.4-.2-11.2.2-14.6 1.5zM1340.7 413.4c-11.9 5-20.3 13-26.3 25.1-6.9 14-8.3 34-3.4 48.5 4.5 13.4 14.8 25.2 26.8 30.8 26.1 12 54.9-3.8 62.7-34.3 2-7.7 2-25.2 0-33-3.9-15.4-14.8-29.9-27.1-36-5.2-2.6-7.2-2.9-16.4-3.2-9.3-.3-11.1-.1-16.3 2.1zM912.2 800.2c-1.7 1.7-1.7 103.9 0 105.6 1.4 1.4 12.6 1.6 14.8.2 1.2-.8 1.6-5.2 2-26.2.4-22.1.7-25.8 2.4-29.1 4.8-9.6 17.2-11.4 19.6-2.8.5 2 1 15.4 1 30.1 0 19.4.3 26.9 1.2 27.8 1.4 1.4 12.6 1.6 14.8.2 1.3-.8 1.5-5.2 1.8-27.6.3-30.1-.3-35.7-4.9-40.9-3.9-4.4-8.4-5.8-16.9-5.3-7.8.4-13.5 3.6-17.3 9.7l-2.2 3.6-.3-21.9c-.1-14.1-.6-22.4-1.3-23.3-1.5-1.7-13-1.8-14.7-.1zM809.2 800.8c-2.2 1.4-2.7 7.8-.8 10.7l1.6 2.5h33v45.3c0 33.9.3 45.6 1.2 46.5 1.6 1.6 15 1.6 16.6 0 .9-.9 1.2-12.6 1.2-46.5V814h16.3c11.3 0 16.7-.4 17.5-1.2.7-.7 1.2-3.3 1.2-5.8s-.5-5.1-1.2-5.8c-1.4-1.4-84.4-1.7-86.6-.4zM1005 831.9c-9 2.8-15.5 8.6-19.6 17.6-2.4 5.2-2.9 7.6-3.2 17.8-.6 15.3 1.7 23.2 8.9 31.2 6.9 7.5 12.9 10 24.4 10 7.8 0 9.8-.4 15-2.8 8.7-4.1 10.5-6.1 10.5-11.7 0-7.1-1.4-7.5-7.5-2.5-6.6 5.3-11.1 6.8-18.6 6.3-5.1-.4-6.4-.9-9.4-3.8-3.7-3.6-6-9.3-7-17.8l-.7-5.2h21c17.5 0 21.2-.2 22.2-1.5.9-1.1 1.1-4 .7-10-.8-14.2-6.8-23.3-17.6-27-4.6-1.6-14.8-1.9-19.1-.6zm15.5 11.3c3.5 1.6 6.3 7.3 7.1 14.2l.7 5.6H999v-2.8c0-5.1 3-12 6.6-15.2 2.7-2.4 4.4-3 7.9-3 2.4 0 5.6.5 7 1.2zM429.9 967.9l-2.4 1.9-.3 82.4c-.2 61.2.1 83 .9 85.1 1.6 3.8 4.4 4.7 14.9 4.7 10.9 0 13.7-1.1 15-5.9.6-2.1 1-18.7 1-39.4V1061h68v76.1l2.5 2.4c2.3 2.3 3.1 2.5 13 2.5s10.7-.2 13-2.5l2.5-2.4v-167l-2.6-2c-2.3-1.8-4.1-2.1-13.1-2.1-9.7 0-10.6.2-12.8 2.5l-2.5 2.4v69.1h-68v-32.3c0-33.2-.6-38.9-4-40.7-1-.5-6.6-1-12.3-1-8.8 0-10.9.3-12.8 1.9zM899.6 967.3c-2.9 2.2-3.6 8.3-3.6 35.9v26.8l-4.8-3.4c-8.6-6.2-17.2-8.3-27.9-6.6-18.2 2.9-30.5 14.7-36.3 35-3.1 10.6-3.9 33.9-1.6 46.8 4.8 27.4 19.7 42.3 42.6 42.6 7.2.1 9.4-.3 14.1-2.6 3.1-1.4 7.5-4.2 9.8-6.3l4.1-3.7v2.6c0 1.5 1.1 3.8 2.5 5.1 2.2 2.3 3.2 2.5 11.3 2.5 7.5 0 9.3-.3 11.6-2.1l2.6-2V970.1l-2.2-2.1c-1.9-1.7-3.5-2-11.3-2-5.8 0-9.7.5-10.9 1.3zm-14.3 70.1c2 .8 5.3 2.6 7.2 4l3.5 2.7v72.2l-4.8 4.7c-9.3 9.4-23.4 9.2-30.7-.4-5.4-7.1-6.8-13.5-7.3-33.3-.5-21.1.5-29.1 4.9-38.1 5.3-10.8 16.3-15.6 27.2-11.8zM955.1 967.9c-1.1 1.1-2.2 3.9-2.6 6.3-.3 2.4-.5 40-.3 83.6l.3 79.4 2.8 2.4c2.5 2.2 3.7 2.4 11.8 2.4 8.2 0 9.2-.2 11.4-2.5 1.4-1.3 2.5-3.2 2.5-4.2 0-1.3.7-1 3.3 1.5 12.9 12.5 38.2 9.8 52.9-5.6 6.5-6.8 10.1-13.5 13-24 3.1-11.5 3.1-38.1 0-50.6-6.1-24.4-19.6-36.8-40.2-37-7.6 0-9.3.3-15.5 3.2-3.8 1.8-8.7 5-10.7 7l-3.8 3.6v-63.3l-2.6-2c-2.3-1.8-4.1-2.1-11.5-2.1-7.5 0-9.2.3-10.8 1.9zm54.8 70.6c10 5.1 14.1 17.5 14.1 43 0 24.4-3.9 37-13.2 42.8-8.6 5.4-18.6 4.6-25.9-2l-3.9-3.5v-73.1l3.6-3.3c6.4-6 17.8-7.8 25.3-3.9zM1332.5 968.5l-2.5 2.4v166.2l2.5 2.4c2.1 2.2 3.3 2.5 9.5 2.5s7.4-.3 9.5-2.5c2.5-2.4 2.5-2.6 2.5-21.2v-18.9l5.4-5.3 5.4-5.3 3.4 5.3c1.9 3 8.9 14.3 15.7 25.1 6.7 10.9 13.2 20.4 14.4 21.3 2.5 1.8 18.6 2.1 21.8.5 4-2.2 2.3-5.8-18.1-38.3-11-17.6-20-32.3-20-32.9 0-.5 8.3-10 18.5-21s18.5-20.8 18.5-21.8c0-3.8-3.2-5-13.3-5-5.3 0-10.7.5-12.1 1.1-1.4.7-10.5 10-20.3 20.8l-17.8 19.5-.5-46.8-.5-46.8-2.4-1.9c-1.8-1.5-3.9-1.9-9.8-1.9-6.5 0-7.7.3-9.8 2.5zM627.5 1018.6c-1.1.2-4.5.9-7.5 1.5-7.2 1.4-19.3 6.5-21.5 8.9-1.6 1.7-1.7 3-.9 10.1 1.2 10.8 2.5 11.7 9 6.3 10.1-8.4 18.2-11.4 30-11.4 6.3 0 7.6.3 10.3 2.5 4.5 3.9 6.5 10.2 6.5 21.4l.1 9.6-4 .2c-24.9 1.6-43.7 8.2-53.4 18.9-6.5 7.1-8.4 12.9-7.9 23.7.8 18 13 32.2 29.4 34.3 10.8 1.3 21.9-3 31.2-12.2l6.2-6.2v5.8c0 5.1.3 6.1 2.6 7.9 2.2 1.7 4.1 2.1 11 2.1 7.3 0 8.6-.3 11.1-2.4l2.8-2.4v-43.9c0-40.7-.1-44.2-1.9-49.7-5.3-16.2-18.3-24.3-40.1-25.1-6-.2-11.9-.2-13 .1zm26.3 75.1c-.4 17.8-1.4 22.1-6.1 27.1-2.9 3.2-8.6 6-13.5 6.8-18.5 2.9-26.3-24.7-11-39.3 5.5-5.3 17.9-9.9 30.2-11.2.4-.1.6 7.4.4 16.6zM1114.4 1019.5c-18.8 4.1-32.1 17.4-37.9 38.1-2.5 8.8-3.2 35.6-1.1 45.4 1.8 8.5 6.9 19.6 11.7 25.4 8.3 10 23.2 16 39.4 16 17.6.1 29.6-4.5 39.4-15 11.3-12 14.6-22.7 14.6-46.9 0-19.1-1.1-24.7-7-37.3-9.8-20.6-34-31.2-59.1-25.7zm24.1 18.1c5.6 2.9 10 9.8 12 18.9 2.3 10 1.7 44.2-.8 52.1-3.8 11.5-11.1 17.3-22 17.4-12.6 0-20.5-7.2-23.5-21.5-3-14.4-2.3-41.9 1.4-53.3 2.2-6.6 7.6-12.8 12.9-14.8 5.4-1.9 15-1.4 20 1.2zM1241.1 1019.6c-17.8 3.8-30.7 16-36.5 34.4-3.1 9.7-4.9 26.1-4.1 35.9 2.6 29.5 14.1 45.9 37 52.7 7.4 2.2 23.6 2.5 31.5.5 18.3-4.5 31.2-17.6 36.6-37.1 2.6-9.3 2.6-35.4.1-46.3-5.2-22.1-19.2-36.4-39.4-40.3-9.1-1.7-16.8-1.7-25.2.2zm24.1 17.8c4.7 2.2 8.4 7.1 11.1 14.4 1.7 4.8 2.1 8.6 2.5 24.7.6 27.7-2.4 39.5-11.6 45.9-4.5 3.2-12.6 4.5-19.6 3.2-5.2-1-12.1-7.7-14.6-14.2-4.7-12.6-5.2-45.1-.9-58.9 2.4-7.9 7.4-13.8 13.4-16.1 5.1-1.8 14.8-1.4 19.7 1zM762.4 1020c-9.7 2-18.7 9-25.3 19.4l-3.1 5v-9.7c0-8.2-.3-10-1.9-11.6-4-4-19.1-3.9-22.7.1-1.8 1.9-1.9 5.1-2.2 56.6-.2 40.3.1 55.4.9 57.5 1.6 3.8 4.4 4.7 14.5 4.7 9.1 0 11.7-1.3 12.9-6.2.3-1.3.6-19.2.8-39.8.3-42.6.4-43 8.5-52.1 7.2-8.1 19-10.2 24.7-4.5 4 4 4.5 10.1 4.5 55.2v42.5l2.5 2.4c2.2 2.3 3.2 2.5 11.4 2.5 8.1 0 9.3-.2 11.8-2.4l2.8-2.4.3-40.9c.3-43.4-.4-54.6-4-61.7-3-6.1-7.6-10.4-13.3-12.5-6.1-2.3-17.4-3.3-23.1-2.1z"/></svg>