<?xml version="1.0" encoding="UTF-8" standalone="no"?>
<svg
   xmlns:dc="http://purl.org/dc/elements/1.1/"
   xmlns:cc="http://creativecommons.org/ns#"
   xmlns:rdf="http://www.w3.org/1999/02/22-rdf-syntax-ns#"
   xmlns:svg="http://www.w3.org/2000/svg"
   xmlns="http://www.w3.org/2000/svg"
   xmlns:sodipodi="http://sodipodi.sourceforge.net/DTD/sodipodi-0.dtd"
   xmlns:inkscape="http://www.inkscape.org/namespaces/inkscape"
   inkscape:version="1.0rc1 (09960d6f05, 2020-04-09)"
   sodipodi:docname="gist.svg"
   version="1.1"
   viewBox="0 0 417.00197 230.27963"
   height="230.27963"
   width="417.00195"
   data-name="Layer 1"
   id="ae0ed483-2375-4630-8129-5bebfcf074ba">
  <metadata
     id="metadata31">
    <rdf:RDF>
      <cc:Work
         rdf:about="">
        <dc:format>image/svg+xml</dc:format>
        <dc:type
           rdf:resource="http://purl.org/dc/dcmitype/StillImage" />
        <dc:title></dc:title>
      </cc:Work>
    </rdf:RDF>
  </metadata>
  <defs
     id="defs29" />
  <sodipodi:namedview
     inkscape:current-layer="ae0ed483-2375-4630-8129-5bebfcf074ba"
     inkscape:window-maximized="0"
     inkscape:window-y="27"
     inkscape:window-x="1280"
     inkscape:cy="171.45549"
     inkscape:cx="210.44236"
     inkscape:zoom="1.014852"
     fit-margin-bottom="0"
     fit-margin-right="0"
     fit-margin-left="0"
     fit-margin-top="0"
     showgrid="false"
     id="namedview27"
     inkscape:window-height="1376"
     inkscape:window-width="1280"
     inkscape:pageshadow="2"
     inkscape:pageopacity="0"
     guidetolerance="10"
     gridtolerance="10"
     objecttolerance="10"
     borderopacity="1"
     bordercolor="#666666"
     pagecolor="#ffffff" />
  <path
     inkscape:connector-curvature="0"
     id="path2"
     fill="#e6e6e6"
     d="M 285.09202,8.3360098e-6 A 30.28061,30.28061 0 0 0 260.9119,12.023468 19.9375,19.9375 0 0 0 233.0934,30.332538 h 82.33115 A 30.33247,30.33247 0 0 0 285.09202,8.3360098e-6 Z" />
  <circle
     id="circle6"
     fill="#ffa200"
     r="80.727303"
     cy="92.882828"
     cx="80.727303" />
  <path
     inkscape:connector-curvature="0"
     id="path8"
     fill="#3f3d56"
     d="m 417.00195,207.90053 v 22.3791 H 20.31548 v -22.48606 l 2.13847,-3.07934 125.76364,-181.096522 a 6.196,6.196 0 0 1 10.17914,0 l 84.34119,121.433112 60.03749,-85.688502 a 6.19679,6.19679 0 0 1 10.15774,0 L 414.86348,204.84253 Z" />
  <path
     inkscape:connector-curvature="0"
     id="path24"
     fill="#cccccc"
     d="m 220.26257,50.648018 a 37.35921,37.35921 0 0 0 -29.83262,14.83414 24.59823,24.59823 0 0 0 -34.32157,22.5891 h 101.5774 a 37.42318,37.42318 0 0 0 -37.42321,-37.42324 z" />
  <g
     transform="matrix(3.7795276,0,0,3.7795276,109.76456,301.94961)"
     id="g61">
    <g
       transform="translate(-22.050532,-67.177558)"
       id="g68">
      <g
         transform="translate(-10.076211,-8.3183922)"
         style="display:inline"
         inkscape:label="durr"
         id="layer8">
        <g
           inkscape:export-ydpi="299.96201"
           inkscape:export-xdpi="299.96201"
           id="flowRoot4504-6"
           style="font-style:normal;font-variant:normal;font-weight:bold;font-stretch:normal;font-size:20px;line-height:25px;font-family:Arial;-inkscape-font-specification:'Arial, Bold';text-align:start;letter-spacing:0px;word-spacing:0px;writing-mode:lr-tb;text-anchor:start;opacity:1;fill:#333333;fill-opacity:1;stroke:none;stroke-width:1px;stroke-linecap:butt;stroke-linejoin:miter;stroke-opacity:1"
           transform="matrix(0.26458333,0,0,0.26458333,-10.022048,-59.473525)"
           aria-label="data" />
        <path
           inkscape:export-ydpi="299.96201"
           inkscape:export-xdpi="299.96201"
           sodipodi:nodetypes="cccsccssscccccsccsc"
           inkscape:connector-curvature="0"
           id="path1711-6-2-1"
           d="m 17.981849,8.7212544 -1.906485,1.9064846 1.940098,1.940098 h 0.282821 c 0.946542,0 1.789879,0.223753 2.529901,0.671209 0.740024,0.430247 1.316456,1.041043 1.729492,1.832696 0.430247,0.791651 0.645475,1.703714 0.645475,2.736304 0,1.015381 -0.197915,1.918919 -0.593741,2.710572 -0.395827,0.791653 -0.946686,1.40271 -1.652289,1.832957 -0.252626,0.154039 -0.518946,0.279256 -0.798045,0.378146 0.194754,0.207133 1.7463,1.536742 1.7463,1.536742 l -1.241054,2.325074 c 0.957959,-0.187072 1.84731,-0.490146 2.667767,-0.909914 1.497255,-0.757234 2.650383,-1.824061 3.459245,-3.200848 0.826073,-1.376788 1.239217,-2.951585 1.239217,-4.724198 0,-1.772614 -0.404618,-3.338623 -1.21348,-4.6982 C 26.008208,11.68159 24.872392,10.614499 23.409555,9.8572668 21.963929,9.1000353 20.294568,8.7212544 18.401486,8.7212544 Z"
           style="font-style:normal;font-variant:normal;font-weight:bold;font-stretch:normal;font-size:192px;line-height:25px;font-family:Montserrat;-inkscape-font-specification:'Montserrat Bold';text-align:start;letter-spacing:0px;word-spacing:0px;writing-mode:lr-tb;text-anchor:start;fill:#333333;fill-opacity:1;stroke:none;stroke-width:0.134452px;stroke-linecap:butt;stroke-linejoin:miter;stroke-opacity:1" />
      </g>
      <g
         transform="translate(-10.076211,-8.3183922)"
         inkscape:label="L"
         id="layer9"
         style="fill:#ffffff">
        <path
           inkscape:export-ydpi="299.96201"
           inkscape:export-xdpi="299.96201"
           sodipodi:nodetypes="cczcccccccccc"
           inkscape:connector-curvature="0"
           id="path1711-6-2-1-9"
           d="m 10.605378,8.721255 v 18.096381 c 0,0 6.723806,0.0017 7.275896,0 0.552089,-0.0017 0.786041,-0.100838 0.786041,-0.100838 l 1.26597,-1.979505 -2.025955,-1.740245 h -2.577755 v -10.42921 l -0.89967,-0.899934 -1.040165,-1.040164 -5.55e-4,-2.68e-4 c 1.3e-4,1.33e-4 0.957608,-0.957398 1.906482,-1.906223 z"
           style="font-style:normal;font-variant:normal;font-weight:bold;font-stretch:normal;font-size:192px;line-height:25px;font-family:Montserrat;-inkscape-font-specification:'Montserrat Bold';text-align:start;letter-spacing:0px;word-spacing:0px;writing-mode:lr-tb;text-anchor:start;fill:#ffffff;fill-opacity:1;stroke:none;stroke-width:0.134452px;stroke-linecap:butt;stroke-linejoin:miter;stroke-opacity:1" />
      </g>
    </g>
  </g>
  <rect
     transform="matrix(0.99137575,-0.13105006,0.07144928,0.99744423,0,0)"
     y="163.96851"
     x="116.46029"
     height="46.041473"
     width="247.67052"
     id="rect85"
     style="fill:#ffa200;fill-opacity:1;stroke:#040404;stroke-width:0.800719;stroke-miterlimit:4;stroke-dasharray:none;stroke-opacity:1" />
  <text
     inkscape:transform-center-y="-8.5612669"
     inkscape:transform-center-x="82.430439"
     transform="rotate(-7.4675606)"
     id="text912"
     y="198.99135"
     x="230.0984"
     style="font-style:normal;font-weight:normal;font-size:37.3333px;line-height:1.25;font-family:sans-serif;text-align:center;letter-spacing:0px;word-spacing:0px;text-anchor:middle;fill:#000000;fill-opacity:1;stroke:none"
     xml:space="preserve"><tspan
       style="font-style:normal;font-variant:normal;font-weight:normal;font-stretch:normal;font-family:'Latin Modern Sans Demi Cond';-inkscape-font-specification:'Latin Modern Sans Demi Cond'"
       y="198.99135"
       x="230.0984"
       id="tspan910"
       sodipodi:role="line">Get the gist!</tspan></text>
</svg>
